<svg width="32" height="32" viewBox="0 0 32 32" fill="none" xmlns="http://www.w3.org/2000/svg">
<path d="M18.4326 2.92578L19.1037 2.18437L19.1036 2.18428L18.4326 2.92578ZM18.8486 4.48242L17.8536 4.5818L18.8486 4.48242ZM19.6484 7.19043L19.2655 8.11421L19.2657 8.11427L19.6484 7.19043ZM22.1299 5.8418L22.7631 6.61581L22.1299 5.8418ZM23.5244 5.03516L23.5743 4.0364L23.574 4.03639L23.5244 5.03516ZM24.8213 5.96582L25.5284 5.25871V5.25871L24.8213 5.96582ZM26.9648 8.47559L27.9636 8.42614L27.9636 8.42585L26.9648 8.47559ZM26.1582 9.86914L26.9321 10.5025L26.1582 9.86914ZM24.8096 12.3506L23.8857 12.7332L23.8858 12.7335L24.8096 12.3506ZM27.5176 13.1514L27.418 14.1464L27.5176 13.1514ZM29.0742 13.5674L29.8158 12.8965L29.8157 12.8964L29.0742 13.5674ZM29.333 15.1426H30.333H29.333ZM29.0742 18.4326L29.8156 19.1037L29.8157 19.1036L29.0742 18.4326ZM27.5176 18.8486L27.4182 17.8536L27.5176 18.8486ZM24.8096 19.6484L23.8858 19.2655L23.8857 19.2657L24.8096 19.6484ZM26.1582 22.1299L25.3842 22.7631L26.1582 22.1299ZM26.9648 23.5244L27.9636 23.5743L27.9636 23.574L26.9648 23.5244ZM26.0342 24.8213L26.7413 25.5284L26.0342 24.8213ZM23.5244 26.9648L23.5739 27.9636L23.5742 27.9636L23.5244 26.9648ZM22.1299 26.1582L22.7632 25.3843L22.1299 26.1582ZM19.6484 24.8096L19.2657 23.8857L19.2652 23.8859L19.6484 24.8096ZM18.8486 27.5176L17.8536 27.4182L18.8486 27.5176ZM18.4326 29.0742L19.1036 29.8157L19.1037 29.8156L18.4326 29.0742ZM15.1426 29.333V30.333V29.333ZM13.5664 29.0742L12.8949 29.8153L12.8955 29.8157L13.5664 29.0742ZM13.1514 27.5176L14.1464 27.4179L13.1514 27.5176ZM12.3496 24.8086L12.7321 23.8846L12.7319 23.8845L12.3496 24.8086ZM9.86914 26.1582L10.5025 26.9321L9.86914 26.1582ZM8.47461 26.9648L8.42481 27.9636L8.42507 27.9636L8.47461 26.9648ZM7.17676 26.0332L6.46937 26.74L6.46956 26.7402L7.17676 26.0332ZM5.96582 24.8213L6.67321 24.1145L6.67302 24.1143L5.96582 24.8213ZM5.03418 23.5244L4.0354 23.5739L4.03542 23.5742L5.03418 23.5244ZM5.8418 22.1299L6.61581 22.7631L5.8418 22.1299ZM7.19043 19.6484L8.11427 19.2657L8.11421 19.2655L7.19043 19.6484ZM4.48242 18.8486L4.5818 17.8536L4.48242 18.8486ZM2.92578 18.4326L2.18428 19.1036L2.18437 19.1037L2.92578 18.4326ZM2.66699 15.1426H1.66699H2.66699ZM2.92578 13.5674L2.18431 12.8964L2.18419 12.8965L2.92578 13.5674ZM4.48242 13.1514L4.58198 14.1464L4.48242 13.1514ZM7.19043 12.3506L8.1143 12.7333L8.1143 12.7333L7.19043 12.3506ZM5.8418 9.86914L6.61581 9.23597L5.8418 9.86914ZM5.03516 8.47461L4.0364 8.42475L4.03639 8.42498L5.03516 8.47461ZM5.96582 7.17773L5.25871 6.47063L5.96582 7.17773ZM8.47559 5.03418L8.42604 4.03541L8.42578 4.03542L8.47559 5.03418ZM9.87012 5.84082L9.23686 6.61476L9.87012 5.84082ZM12.3506 7.18945L12.7332 8.11338L12.7332 8.11335L12.3506 7.18945ZM13.1514 4.48145L12.1563 4.38187L13.1514 4.48145ZM13.5674 2.92578L12.8965 2.18418L12.8964 2.18431L13.5674 2.92578ZM15.1426 2.66699V1.66699V2.66699ZM16 10.667V9.66699V9.66699V10.667ZM10.667 16H9.66699V16H10.667ZM16 21.333V22.333V22.333V21.333ZM21.333 16H22.333V16H21.333ZM16.8564 2.66699V3.66699C17.3131 3.66699 17.5599 3.669 17.7319 3.69121C17.8757 3.70977 17.8283 3.72758 17.7617 3.66729L18.4326 2.92578L19.1036 2.18428C18.7512 1.86547 18.3459 1.75388 17.988 1.70768C17.6584 1.66512 17.26 1.66699 16.8564 1.66699V2.66699ZM18.4326 2.92578L17.7616 3.66719C17.6936 3.60567 17.7074 3.55638 17.7411 3.70183C17.7808 3.8736 17.8078 4.12314 17.8536 4.5818L18.8486 4.48242L19.8437 4.38304C19.8031 3.97642 19.7649 3.57693 19.6897 3.25135C19.6083 2.89945 19.4573 2.50448 19.1037 2.18437L18.4326 2.92578ZM18.8486 4.48242L17.8536 4.5818C17.9327 5.37435 18.0007 6.08249 18.1329 6.61223C18.2646 7.13982 18.5354 7.81158 19.2655 8.11421L19.6484 7.19043L20.0314 6.26665C20.2088 6.34019 20.1623 6.48411 20.0734 6.12805C19.9851 5.77414 19.9296 5.24282 19.8437 4.38304L18.8486 4.48242ZM19.6484 7.19043L19.2657 8.11427C19.9957 8.41675 20.6624 8.13373 21.1288 7.85387C21.5972 7.57286 22.1463 7.12034 22.7631 6.61581L22.1299 5.8418L21.4967 5.06779C20.8279 5.6149 20.4126 5.95121 20.0999 6.13886C19.7852 6.32766 19.8539 6.19314 20.0312 6.26659L19.6484 7.19043ZM22.1299 5.8418L22.7631 6.61581C23.12 6.32384 23.3155 6.16644 23.4652 6.07291C23.5919 5.99369 23.5667 6.03849 23.4748 6.03392L23.5244 5.03516L23.574 4.03639C23.0974 4.0127 22.7114 4.18557 22.4053 4.37682C22.1222 4.55376 21.8128 4.80924 21.4967 5.06779L22.1299 5.8418ZM23.5244 5.03516L23.4746 6.03391C23.3851 6.02944 23.3642 5.98348 23.4786 6.07173C23.6157 6.17741 23.7915 6.35028 24.1142 6.67293L24.8213 5.96582L25.5284 5.25871C25.2431 4.97345 24.9628 4.69059 24.6997 4.48772C24.4139 4.26741 24.0485 4.06007 23.5743 4.0364L23.5244 5.03516ZM24.8213 5.96582L24.1142 6.67293L25.3261 7.88484L26.0332 7.17773L26.7403 6.47063L25.5284 5.25871L24.8213 5.96582ZM26.0332 7.17773L25.3261 7.88484C25.649 8.20776 25.8222 8.38378 25.9281 8.52113C26.0167 8.63599 25.9706 8.61509 25.9661 8.52532L26.9648 8.47559L27.9636 8.42585C27.94 7.9512 27.7322 7.58555 27.5118 7.29979C27.3088 7.03652 27.0257 6.75605 26.7403 6.47063L26.0332 7.17773ZM26.9648 8.47559L25.9661 8.52503C25.9615 8.43309 26.0064 8.40767 25.9273 8.53416C25.8337 8.6837 25.6764 8.87893 25.3843 9.23578L26.1582 9.86914L26.9321 10.5025C27.1905 10.1868 27.446 9.87759 27.6229 9.59468C27.8143 9.28872 27.9872 8.90282 27.9636 8.42614L26.9648 8.47559ZM26.1582 9.86914L25.3843 9.23578C24.8795 9.85255 24.427 10.4016 24.146 10.8702C23.866 11.3369 23.5834 12.0034 23.8857 12.7332L24.8096 12.3506L25.7335 11.968C25.8067 12.1449 25.6725 12.2133 25.8611 11.8989C26.0486 11.5863 26.3849 11.1711 26.9321 10.5025L26.1582 9.86914ZM24.8096 12.3506L23.8858 12.7335C24.1882 13.4632 24.8594 13.7344 25.3871 13.8663C25.917 13.9988 26.6251 14.0671 27.418 14.1464L27.5176 13.1514L27.6171 12.1563C26.7573 12.0703 26.226 12.0145 25.8722 11.9261C25.5165 11.8371 25.66 11.7906 25.7334 11.9677L24.8096 12.3506ZM27.5176 13.1514L27.418 14.1464C27.8769 14.1923 28.1264 14.2193 28.2983 14.259C28.4438 14.2927 28.3944 14.3065 28.3328 14.2384L29.0742 13.5674L29.8157 12.8964C29.4955 12.5426 29.1005 12.3917 28.7486 12.3104C28.4232 12.2352 28.0237 12.197 27.6171 12.1563L27.5176 13.1514ZM29.0742 13.5674L28.3326 14.2382C28.2725 14.1718 28.2902 14.1245 28.3088 14.2679C28.331 14.4396 28.333 14.6861 28.333 15.1426H29.333H30.333C30.333 14.7392 30.3349 14.341 30.2923 14.0115C30.246 13.6536 30.1343 13.2486 29.8158 12.8965L29.0742 13.5674ZM29.333 15.1426H28.333V16.8564H29.333H30.333V15.1426H29.333ZM29.333 16.8564H28.333C28.333 17.3131 28.331 17.5599 28.3088 17.7319C28.2902 17.8757 28.2724 17.8283 28.3327 17.7617L29.0742 18.4326L29.8157 19.1036C30.1345 18.7512 30.2461 18.3459 30.2923 17.988C30.3349 17.6584 30.333 17.26 30.333 16.8564H29.333ZM29.0742 18.4326L28.3328 17.7616C28.3943 17.6936 28.4436 17.7074 28.2982 17.7411C28.1264 17.7808 27.8769 17.8078 27.4182 17.8536L27.5176 18.8486L27.617 19.8437C28.0236 19.8031 28.4231 19.7649 28.7486 19.6897C29.1006 19.6083 29.4955 19.4573 29.8156 19.1037L29.0742 18.4326ZM27.5176 18.8486L27.4182 17.8536C26.6257 17.9327 25.9175 18.0007 25.3878 18.1329C24.8602 18.2646 24.1884 18.5354 23.8858 19.2655L24.8096 19.6484L25.7334 20.0314C25.6598 20.2088 25.5159 20.1623 25.8719 20.0734C26.2259 19.9851 26.7572 19.9296 27.617 19.8437L27.5176 18.8486ZM24.8096 19.6484L23.8857 19.2657C23.5833 19.9957 23.8663 20.6624 24.1461 21.1288C24.4271 21.5972 24.8797 22.1463 25.3842 22.7631L26.1582 22.1299L26.9322 21.4967C26.3851 20.8279 26.0488 20.4126 25.8611 20.0999C25.6723 19.7852 25.8069 19.8539 25.7334 20.0312L24.8096 19.6484ZM26.1582 22.1299L25.3842 22.7631C25.6762 23.12 25.8336 23.3155 25.9271 23.4652C26.0063 23.5919 25.9615 23.5667 25.9661 23.4748L26.9648 23.5244L27.9636 23.574C27.9873 23.0974 27.8144 22.7114 27.6232 22.4053C27.4462 22.1222 27.1908 21.8128 26.9322 21.4967L26.1582 22.1299ZM26.9648 23.5244L25.9661 23.4746C25.9706 23.3851 26.0165 23.3642 25.9283 23.4786C25.8226 23.6157 25.6497 23.7915 25.3271 24.1142L26.0342 24.8213L26.7413 25.5284C27.0265 25.2431 27.3094 24.9628 27.5123 24.6997C27.7326 24.4139 27.9399 24.0485 27.9636 23.5743L26.9648 23.5244ZM26.0342 24.8213L25.3271 24.1142L24.1152 25.3261L24.8223 26.0332L25.5294 26.7403L26.7413 25.5284L26.0342 24.8213ZM24.8223 26.0332L24.1152 25.3261C23.7923 25.649 23.6163 25.8221 23.4789 25.928C23.364 26.0167 23.3848 25.9706 23.4746 25.9661L23.5244 26.9648L23.5742 27.9636C24.0488 27.9399 24.4145 27.7322 24.7002 27.5118C24.9635 27.3088 25.244 27.0257 25.5294 26.7403L24.8223 26.0332ZM23.5244 26.9648L23.4749 25.9661C23.5666 25.9615 23.5918 26.0062 23.4651 25.9271C23.3155 25.8336 23.12 25.6762 22.7632 25.3843L22.1299 26.1582L21.4966 26.9321C21.8127 27.1908 22.1221 27.4463 22.4053 27.6232C22.7115 27.8145 23.0975 27.9872 23.5739 27.9636L23.5244 26.9648ZM22.1299 26.1582L22.7632 25.3843C22.1463 24.8795 21.5972 24.427 21.1288 24.146C20.6621 23.866 19.9956 23.5833 19.2657 23.8857L19.6484 24.8096L20.0312 25.7334C19.8541 25.8068 19.7855 25.6724 20.0999 25.8611C20.4126 26.0486 20.8278 26.3849 21.4966 26.9321L22.1299 26.1582ZM19.6484 24.8096L19.2652 23.8859C18.5356 24.1887 18.2647 24.8601 18.133 25.3877C18.0008 25.9174 17.9327 26.6255 17.8536 27.4182L18.8486 27.5176L19.8437 27.6169C19.9295 26.7572 19.9852 26.2259 20.0735 25.872C20.1623 25.5161 20.2088 25.6597 20.0317 25.7332L19.6484 24.8096ZM18.8486 27.5176L17.8536 27.4182C17.8078 27.8769 17.7808 28.1264 17.7411 28.2982C17.7074 28.4436 17.6936 28.3943 17.7616 28.3328L18.4326 29.0742L19.1037 29.8156C19.4573 29.4955 19.6083 29.1006 19.6897 28.7487C19.7649 28.4231 19.8031 28.0236 19.8437 27.6169L18.8486 27.5176ZM18.4326 29.0742L17.7617 28.3327C17.8283 28.2724 17.8757 28.2902 17.7319 28.3088C17.5599 28.331 17.3131 28.333 16.8564 28.333V29.333V30.333C17.26 30.333 17.6584 30.3349 17.988 30.2923C18.3459 30.2461 18.7512 30.1345 19.1036 29.8157L18.4326 29.0742ZM16.8564 29.333V28.333H15.1426V29.333V30.333H16.8564V29.333ZM15.1426 29.333V28.333C14.6861 28.333 14.4392 28.331 14.2672 28.3088C14.1233 28.2902 14.1706 28.2724 14.2373 28.3327L13.5664 29.0742L12.8955 29.8157C13.2478 30.1346 13.6533 30.2461 14.0111 30.2923C14.3407 30.3349 14.7391 30.333 15.1426 30.333V29.333ZM13.5664 29.0742L14.2379 28.3332C14.3064 28.3953 14.2926 28.4451 14.2589 28.299C14.2192 28.1266 14.1924 27.877 14.1464 27.4179L13.1514 27.5176L12.1564 27.6173C12.197 28.0232 12.2351 28.4226 12.3099 28.7477C12.3908 29.099 12.5411 29.4946 12.8949 29.8153L13.5664 29.0742ZM13.1514 27.5176L14.1464 27.4179C14.0669 26.6246 13.9984 25.9162 13.8657 25.3861C13.7336 24.8583 13.4621 24.1869 12.7321 23.8846L12.3496 24.8086L11.9671 25.7325C11.7899 25.6592 11.8364 25.5156 11.9256 25.8717C12.0142 26.2257 12.0702 26.7573 12.1564 27.6173L13.1514 27.5176ZM12.3496 24.8086L12.7319 23.8845C12.0016 23.5825 11.3352 23.866 10.869 24.146C10.401 24.4272 9.8522 24.8798 9.23578 25.3843L9.86914 26.1582L10.5025 26.9321C11.1712 26.3848 11.5862 26.0483 11.899 25.8604C12.2136 25.6714 12.1448 25.806 11.9674 25.7327L12.3496 24.8086ZM9.86914 26.1582L9.23578 25.3843C8.879 25.6764 8.68352 25.8337 8.53399 25.9271C8.40744 26.0062 8.43257 25.9615 8.52415 25.9661L8.47461 26.9648L8.42507 27.9636C8.90148 27.9872 9.2874 27.8147 9.59367 27.6233C9.87696 27.4463 10.1863 27.1908 10.5025 26.9321L9.86914 26.1582ZM8.47461 26.9648L8.52441 25.9661C8.61399 25.9706 8.63483 26.0166 8.52009 25.9281C8.38281 25.8222 8.20681 25.6491 7.88396 25.3262L7.17676 26.0332L6.46956 26.7402C6.75505 27.0258 7.03551 27.3089 7.29884 27.5119C7.58471 27.7324 7.95031 27.9399 8.42481 27.9636L8.47461 26.9648ZM7.17676 26.0332L7.88415 25.3264L6.67321 24.1145L5.96582 24.8213L5.25843 25.5281L6.46937 26.74L7.17676 26.0332ZM5.96582 24.8213L6.67302 24.1143C6.35003 23.7912 6.17688 23.6154 6.07074 23.4779C5.98198 23.363 6.02843 23.3842 6.03294 23.4746L5.03418 23.5244L4.03542 23.5742C4.05911 24.0493 4.26745 24.415 4.48774 24.7003C4.69065 24.9631 4.97373 25.2433 5.25862 25.5283L5.96582 24.8213ZM5.03418 23.5244L6.03296 23.4749C6.03755 23.5676 5.99237 23.5931 6.07206 23.4658C6.16597 23.3158 6.32364 23.1202 6.61581 22.7631L5.8418 22.1299L5.06779 21.4967C4.8095 21.8124 4.55384 22.1218 4.37679 22.4046C4.18553 22.7102 4.01176 23.0965 4.0354 23.5739L5.03418 23.5244ZM5.8418 22.1299L6.61581 22.7631C7.12034 22.1463 7.57286 21.5972 7.85387 21.1288C8.13372 20.6624 8.41674 19.9957 8.11427 19.2657L7.19043 19.6484L6.26659 20.0312C6.19313 19.8539 6.32766 19.7852 6.13885 20.0999C5.9512 20.4126 5.61489 20.8279 5.06779 21.4967L5.8418 22.1299ZM7.19043 19.6484L8.11421 19.2655C7.81158 18.5354 7.13982 18.2646 6.61223 18.1329C6.08249 18.0007 5.37435 17.9327 4.5818 17.8536L4.48242 18.8486L4.38304 19.8437C5.24282 19.9296 5.77414 19.9851 6.12805 20.0734C6.48411 20.1623 6.34019 20.2088 6.26665 20.0314L7.19043 19.6484ZM4.48242 18.8486L4.5818 17.8536C4.12314 17.8078 3.8736 17.7808 3.70183 17.7411C3.55638 17.7074 3.60567 17.6936 3.66719 17.7616L2.92578 18.4326L2.18437 19.1037C2.50448 19.4573 2.89945 19.6083 3.25135 19.6897C3.57693 19.7649 3.97642 19.8031 4.38304 19.8437L4.48242 18.8486ZM2.92578 18.4326L3.66729 17.7617C3.72758 17.8283 3.70977 17.8757 3.69121 17.7319C3.669 17.5599 3.66699 17.3131 3.66699 16.8564H2.66699H1.66699C1.66699 17.26 1.66512 17.6584 1.70768 17.988C1.75388 18.3459 1.86547 18.7512 2.18428 19.1036L2.92578 18.4326ZM2.66699 16.8564H3.66699V15.1426H2.66699H1.66699V16.8564H2.66699ZM2.66699 15.1426H3.66699C3.66699 14.6861 3.66903 14.4396 3.69123 14.2679C3.70977 14.1245 3.72749 14.1718 3.66737 14.2382L2.92578 13.5674L2.18419 12.8965C1.86567 13.2486 1.75399 13.6536 1.70774 14.0115C1.66514 14.3409 1.66699 14.7392 1.66699 15.1426H2.66699ZM2.92578 13.5674L3.66725 14.2384C3.60562 14.3065 3.55618 14.2927 3.7017 14.259C3.87357 14.2193 4.12313 14.1923 4.58198 14.1464L4.48242 13.1514L4.38287 12.1563C3.97632 12.197 3.57682 12.2352 3.25135 12.3104C2.89953 12.3917 2.50447 12.5426 2.18431 12.8964L2.92578 13.5674ZM4.48242 13.1514L4.58198 14.1464C5.37483 14.0671 6.08301 13.9988 6.61282 13.8664C7.14057 13.7345 7.81192 13.4632 8.1143 12.7333L7.19043 12.3506L6.26656 11.9679C6.33997 11.7907 6.48365 11.8371 6.12781 11.9261C5.77402 12.0145 5.24268 12.0703 4.38287 12.1563L4.48242 13.1514ZM7.19043 12.3506L8.1143 12.7333C8.41667 12.0034 8.13379 11.3368 7.85391 10.8703C7.57292 10.4019 7.12041 9.85282 6.61581 9.23597L5.8418 9.86914L5.06779 10.5023C5.61496 11.1712 5.95125 11.5865 6.13888 11.8992C6.32761 12.2138 6.19316 12.1451 6.26656 11.9679L7.19043 12.3506ZM5.8418 9.86914L6.61581 9.23597C6.32378 8.87898 6.16639 8.68348 6.07287 8.53382C5.9937 8.40712 6.03849 8.43238 6.03392 8.52424L5.03516 8.47461L4.03639 8.42498C4.01271 8.90157 4.1855 9.28755 4.37677 9.59365C4.5537 9.8768 4.80919 10.1862 5.06779 10.5023L5.8418 9.86914ZM5.03516 8.47461L6.03391 8.52447C6.02944 8.61396 5.98348 8.63487 6.07173 8.52038C6.17741 8.38329 6.35028 8.20749 6.67293 7.88484L5.96582 7.17773L5.25871 6.47063C4.97345 6.75589 4.69059 7.03618 4.48772 7.29936C4.26741 7.58515 4.06007 7.95054 4.0364 8.42475L5.03516 8.47461ZM5.96582 7.17773L6.67293 7.88484L7.88484 6.67293L7.17773 5.96582L6.47063 5.25871L5.25871 6.47063L5.96582 7.17773ZM7.17773 5.96582L7.88484 6.67293C8.20769 6.35007 8.38374 6.17692 8.52111 6.07099C8.63603 5.98237 8.61517 6.02846 8.52539 6.03294L8.47559 5.03418L8.42578 4.03542C7.95116 4.05909 7.58551 4.26687 7.29978 4.4872C7.03651 4.69023 6.75604 4.9733 6.47063 5.25871L7.17773 5.96582ZM8.47559 5.03418L8.52513 6.03295C8.43336 6.0375 8.40819 5.99277 8.53493 6.07196C8.68456 6.16544 8.88007 6.32283 9.23686 6.61476L9.87012 5.84082L10.5034 5.06688C10.1873 4.80826 9.87792 4.55278 9.59469 4.37581C9.28857 4.18455 8.90258 4.01177 8.42604 4.03541L8.47559 5.03418ZM9.87012 5.84082L9.23686 6.61476C9.85332 7.11917 10.4022 7.57167 10.8703 7.85267C11.3366 8.13258 12.0031 8.41566 12.7332 8.11338L12.3506 7.18945L11.968 6.26553C12.1453 6.19212 12.2141 6.32663 11.8996 6.13788C11.587 5.95022 11.172 5.61397 10.5034 5.06688L9.87012 5.84082ZM12.3506 7.18945L12.7332 8.11335C13.4633 7.81097 13.7345 7.13942 13.8664 6.61172C13.9988 6.0819 14.0671 5.37371 14.1464 4.58102L13.1514 4.48145L12.1563 4.38187C12.0703 5.2416 12.0145 5.77295 11.9261 6.12679C11.8371 6.48274 11.7907 6.33898 11.9679 6.26556L12.3506 7.18945ZM13.1514 4.48145L14.1464 4.58102C14.1923 4.12244 14.2193 3.87316 14.259 3.70156C14.2926 3.55643 14.3063 3.60579 14.2384 3.66726L13.5674 2.92578L12.8964 2.18431C12.5428 2.50428 12.3918 2.89899 12.3104 3.25084C12.2352 3.57621 12.197 3.97551 12.1563 4.38187L13.1514 4.48145ZM13.5674 2.92578L14.2382 3.66738C14.1718 3.72749 14.1245 3.70977 14.2679 3.69123C14.4396 3.66903 14.6861 3.66699 15.1426 3.66699V2.66699V1.66699C14.7392 1.66699 14.3409 1.66514 14.0114 1.70774C13.6536 1.754 13.2486 1.86567 12.8965 2.18418L13.5674 2.92578ZM15.1426 2.66699V3.66699H16.8564V2.66699V1.66699H15.1426V2.66699ZM16 10.667V9.66699C12.5022 9.66699 9.66699 12.5022 9.66699 16H10.667H11.667C11.667 13.6068 13.6068 11.667 16 11.667V10.667ZM10.667 16H9.66699C9.66699 19.4978 12.5022 22.333 16 22.333V21.333V20.333C13.6068 20.333 11.667 18.3932 11.667 16H10.667ZM16 21.333V22.333C19.4978 22.333 22.333 19.4978 22.333 16H21.333H20.333C20.333 18.3932 18.3932 20.333 16 20.333V21.333ZM21.333 16H22.333C22.333 12.5022 19.4978 9.66699 16 9.66699V10.667V11.667C18.3932 11.667 20.333 13.6068 20.333 16H21.333Z" fill="#33363F"/>
</svg>
